<svg xmlns="http://www.w3.org/2000/svg" viewBox="0 0 512 512">
  <rect width="512" height="512" rx="96" fill="#050505"/>
  <g fill="#ffd500">
    <path d="M256 34c104 0 190 80 198 182 38 55 59 121 42 158-12 27-45 33-94 20a220 220 0 0 1-148 56l38-39a184 184 0 0 0 73-29l-59-34a118 118 0 0 0-61-130c-28-16-37-49-66-74-21-18-48-18-77 2-11 7-7 23 7 24 25 2 49 1 67 22 19 22 18 34 36 58 20 27 48 78 29 96l-34 34L75 247c-34-48-60-98-48-126 12-27 45-33 94-20A220 220 0 0 1 256 34Zm178 252c0 13 11 24 24 24h21c7-33-10-81-38-126l-31 31 24 71ZM86 116c-25-6-41-4-47 8-8 18 17 65 50 109l39-39-42-78Z"/>
    <path d="M344 174c-12 12-13 31-1 43 12 13 31 13 43 1l54-54c12-12 13-31 1-43-12-13-31-13-43-1l-54 54Zm43 63c-12 12-13 31-1 43 12 13 31 13 43 1l43-43c12-12 13-31 1-43-12-13-31-13-43-1l-43 43Zm40 62c-12 12-13 31-1 43 12 13 31 13 43 1l25-25c12-12 13-31 1-43-12-13-31-13-43-1l-25 25Z"/>
  </g>
</svg>
